<?xml version="1.0" standalone="no"?>
<!DOCTYPE svg PUBLIC "-//W3C//DTD SVG 20010904//EN"
 "http://www.w3.org/TR/2001/REC-SVG-20010904/DTD/svg10.dtd">
<svg version="1.0" xmlns="http://www.w3.org/2000/svg"
 width="120.000000pt" height="120.000000pt" viewBox="0 0 120.000000 120.000000"
 preserveAspectRatio="xMidYMid meet">
<metadata>
Created by potrace 1.14, written by Peter Selinger 2001-2017
</metadata>
<g transform="translate(0.000000,120.000000) scale(0.100000,-0.100000)"
fill="#000000" stroke="none">
<path d="M317 1176 c-15 -23 -17 -81 -17 -576 0 -353 4 -558 10 -570 6 -11 26
-22 46 -26 29 -5 40 -2 56 14 20 20 21 32 21 256 0 186 3 236 13 236 8 0 37
11 66 24 29 13 76 34 103 46 28 12 88 40 135 62 47 22 130 60 185 85 163 73
182 91 147 133 -14 16 -240 125 -497 240 -27 12 -63 28 -79 36 -16 8 -35 14
-42 14 -7 0 -25 10 -41 23 -41 33 -86 35 -106 3z"/>
</g>
</svg>
